<svg xmlns="http://www.w3.org/2000/svg" viewBox="258.67 260.02 506.97 504.69"><path fill="#53341e" d="M550.5 762.54c-16.84 2.65-54.06 2.92-71.57.53-45.27-6.19-91.46-26.03-126.43-54.28-9.23-7.46-29.77-26.85-29.13-27.5.24-.23 3.3.45 6.8 1.54 9.73 3 18.16 3.57 26.59 1.8 24.22-5.09 41.71-22.52 46.85-46.67 2.85-13.43-.31-30.16-8.12-42.95-3.55-5.8-12.59-15.11-18.49-19.03-1.92-1.28-3.67-2.46-3.88-2.62-.21-.15 4.55-8.06 10.57-17.57s14.25-22.69 18.3-29.29c4.04-6.6 15.01-24.38 24.38-39.5 9.36-15.12 21.03-34.02 25.93-42 4.89-7.98 9.93-16.08 11.18-18s5.47-8.67 9.38-15l7.11-11.5-7.95-3.67c-29.54-13.64-48.62-41.88-50.71-75.08-.34-5.36-.81-9.75-1.05-9.75s-4.92 2.31-10.41 5.13C352.8 346.43 309.5 403.29 296.47 466c-3.94 18.96-4.76 29.28-4.17 52.82.62 24.43 2.31 35.87 8.27 55.84l3.63 12.16-3.99 5.34c-7.66 10.26-10.79 18.67-12 32.3l-.71 7.95-5.18-10.95c-9.96-21.08-17.45-46.55-21.47-72.96-1.65-10.85-2.14-18.83-2.18-35.5-.07-31.17 3.25-52.75 12.41-80.5 5.81-17.61 18.73-44.49 28.18-58.62 41.74-62.39 102.8-101.29 176.43-112.39 5.39-.81 11.39-1.48 13.31-1.47 3.46.01 3.43.04-2.48 3.04-28.96 14.68-40.43 48.28-26.48 77.53 5.74 12.02 14.8 20.96 27.77 27.39 9.18 4.56 17.93 6.26 30.07 5.86l10.38-.34 14.85 24c8.17 13.2 17.62 28.5 21 34 3.37 5.5 7.83 12.7 9.9 16 3.84 6.11 34.44 55.64 47.26 76.5 3.89 6.33 7.62 12.11 8.3 12.86 1.01 1.12 2.44.64 8.4-2.84 16.81-9.82 29.31-13.31 47.53-13.26 13.96.03 27.13 2.94 39.14 8.64l7.15 3.4.6-3.02c.34-1.67.61-9.7.61-17.85 0-29.32-5.56-57.27-16.69-83.92-25.16-60.21-73.62-104.98-135.99-125.63l-10.82-3.58-4.37-8.99c-5.56-11.42-14.73-21.02-24.82-25.97-5.53-2.72-6.35-3.4-4.39-3.68 4.32-.61 25.26 2.92 40.85 6.89 97.38 24.79 169.93 104.93 186.89 206.45 2.63 15.76 2.64 61.01.02 77.35-2.96 18.36-10.36 45.02-16.43 59.14l-1.94 4.5-.7-6.23c-1.54-13.58-7.12-25.45-16.85-35.86-6.83-7.3-14.39-12.23-23.76-15.48-5.32-1.85-8.67-2.27-18.5-2.29-10.61-.03-12.87.29-19.5 2.7-14.54 5.28-26.28 15.47-34.05 29.55-2.45 4.43-4.75 8.07-5.13 8.09-.37.02-6.7-9.76-14.06-21.72-7.37-11.96-25.69-41.55-40.72-65.75-35.44-57.06-48.63-78.33-54.07-87.25-2.44-3.99-4.89-7.24-5.45-7.24-.94.01-46.64 72.53-48.09 76.32-.59 1.54 1.92 1.67 32.47 1.67h33.12l-.52 105.5h-33l-.26-35.77-.27-35.76-54.21.53-25.85 41.46 3.95 5.27c8.6 11.47 14.62 26.18 17.09 41.77 4.57 28.74-6.17 58.74-28.62 79.99l-8.35 7.9 14.26 7c20.6 10.11 38.15 15.87 61.76 20.26 13.69 2.55 41.96 3.51 57.14 1.94 48.58-5.02 90.89-23.72 128.39-56.75l7.03-6.19 6.97 1.5c10.56 2.26 22.22.63 34.38-4.8 3.52-1.58 6.55-2.72 6.73-2.55.76.77-14.03 18.07-24.14 28.25-13.26 13.34-22.76 21.12-39.13 32.05-30.01 20.05-66.55 34.23-102.87 39.94"/><path fill="#b67c46" d="m442.87 375.08-2.15-2.34-4.61 2.23c-8.49 4.1-24.09 16.08-34.4 26.41-21.66 21.71-36.05 48.1-42.86 78.62-2.06 9.19-2.35 13.12-2.35 31.5 0 23.39 1.03 30.82 7.18 52 1.91 6.6 5.97 20.55 9.01 31 7.42 25.51 7.52 25.98 7.1 34-.74 13.96-9.14 25.85-21.59 30.54-11.4 4.31-25.24 1.34-35.04-7.52-9.26-8.36-12.81-24.41-8.16-36.82 2.73-7.27 10.55-15.53 17.29-18.26 3.29-1.33 4.65-2.41 4.35-3.44-.24-.83-1.8-5.33-3.47-10-4.59-12.88-7.04-21.85-9.2-33.72-4.83-26.52-4.19-57.6 1.67-81.78 4.59-18.93 15.03-43.18 25.39-59 17.46-26.64 41.34-49.24 66.53-62.98l7.06-3.85-1.34-5.09c-.6-2.27-1.3-7.11-1.72-11.73 1.83 19.17 9.37 36.54 21.31 50.23m225.86 146.93.56-.12-.57-14.2c-.56-13.81-2.27-25.46-5.37-36.69-12.29-44.45-41.65-79.91-82.85-100.05-12.91-6.31-22.47-9.36-52.92-16.89-27.26-6.74-33.69-9.29-39.55-15.64-7.16-7.77-8.53-11.53-8.53-23.42 0-8.86.34-11.12 2.16-14.5 3.45-6.38 8.7-11.83 14.48-15.03 5.03-2.79 6.03-2.97 16.36-2.97 9.55 0 11.56.3 15.3 2.29 11.58 6.19 18.4 17.21 18.59 30.05l.11 7.47 10.54 2.75c25.96 6.77 51.12 18.85 71.44 34.3 46.9 35.65 75.4 93.47 75.5 153.17l.02 10.03.38.09c-6.1-1.24-12.41-1.87-18.88-1.89-6.11-.02-11.57.37-16.77 1.25M437.14 639.17q-.315 3.03-.78 6.09l-.58 3.77 8.83 4.07c20.88 9.65 38.9 13.93 61.67 14.65 25.49.79 46.4-2.95 68.06-12.2 21.71-9.28 36.84-20.36 66.16-48.48 11-10.55 22.02-20.52 24.48-22.16 15.4-10.26 37.13-6.91 47.62 7.33 5.5 7.48 6.85 11.57 6.88 20.86.02 6.74-.38 8.38-3.48 14.45-6.08 11.9-16.73 18.45-30 18.45-7.29 0-14.61-2.21-19.83-5.99-2.28-1.66-4.44-3.01-4.78-3.01-.35 0-3.43 2.61-6.84 5.81-18.56 17.36-36.45 30.44-53.36 39.03-28.8 14.62-57.19 21.4-89.19 21.3-29.79-.09-54.91-5.6-81.08-17.81l-9.57-4.47-7.78 7.78c12.88-14.19 21.03-31.5 23.57-49.47m-2.3-35.22c-3.11-11.8-8.26-22.75-14.98-31.72 7.07 9.44 12.1 20.14 14.98 31.72m-28.57 91.99-6.06 6.06-.23-.11ZM629.6 536.89c.85.83 2.52.33 7.84-2.56-5.45 3.16-6.86 3.61-7.84 2.56m93.51-8.19c.59.26 1.16.52 1.67.76l2.49 1.2-2.63-1.26Z"/></svg>